# xmcd CD database file
#
# Track frame offsets:
#	150
#	12478
#	26043
#	39904
#	53470
#	65122
#	76867
#	89824
#	103569
#	116850
#	129058
#	141899
#	154762
#	168153
#	180118
#	194028
#	207744
#	222093
#	239106
#	251170
#	267808
#	280862
#	294044
#	306652
#	321044
#
# Disc length: 4465 seconds
#
# Revision: 0
# Processed by: cddbd v1.5.2PL0 Copyright (c) Steve Scherf et al.
# Submitted via: CDex 1.40PlusFr
#
DISCID=70116f19
DTITLE=Lightnin' Hopkins - Texas Blues Giant Volume 2
DYEAR=2010
DGENRE=Blues
TTITLE0=Gotta Move
TTITLE1=Give Me Central 209
TTITLE2=Long Way From Texas
TTITLE3=Praying Ground Blues
TTITLE4=You Caused My Heart To Weep
TTITLE5=Papa Bones Boogie
TTITLE6=No Good Woman
TTITLE7=Dirty House Blues
TTITLE8=Bald Headed Woman
TTITLE9=Everything Happens To Me
TTITLE10=Freight Train Blues
TTITLE11=Don't Think I'm Crazy
TTITLE12=Down To The River
TTITLE13=I'm Begging You
TTITLE14=You Do Too
TTITLE15=Everybody's Down On Me
TTITLE16=Sad. News From Korea
TTITLE17=Let Me FlyYour Kite
TTITLE18=Gone With The Wind
TTITLE19=She's Almost Dead
TTITLE20=My Mama Told Me
TTITLE21=Ain't It A Shame
TTITLE22=Bad Things On My Mind
TTITLE23=Cemetery Blues
TTITLE24=The War Is Over
EXTD=YEAR: 2010 ID3G: 0
EXTT0=
EXTT1=
EXTT2=
EXTT3=
EXTT4=
EXTT5=
EXTT6=
EXTT7=
EXTT8=
EXTT9=
EXTT10=
EXTT11=
EXTT12=
EXTT13=
EXTT14=
EXTT15=
EXTT16=
EXTT17=
EXTT18=
EXTT19=
EXTT20=
EXTT21=
EXTT22=
EXTT23=
EXTT24=
PLAYORDER=
